<mxfile host="65bd71144e">
    <diagram id="OBsV-6mlvPzG7DgW73W5" name="Page-1">
        <mxGraphModel dx="2243" dy="1418" grid="0" gridSize="10" guides="1" tooltips="1" connect="1" arrows="1" fold="1" page="1" pageScale="1" pageWidth="2336" pageHeight="1654" background="#ffffff" math="0" shadow="0">
            <root>
                <mxCell id="0"/>
                <mxCell id="1" parent="0"/>
                <mxCell id="2" value="&lt;font color=&quot;#333333&quot; style=&quot;font-size: 25px;&quot;&gt;&lt;b&gt;App&lt;/b&gt;&lt;/font&gt;" style="rounded=0;whiteSpace=wrap;html=1;fillColor=#b1ddf0;strokeColor=#10739e;" parent="1" vertex="1">
                    <mxGeometry x="363" y="532" width="264" height="140" as="geometry"/>
                </mxCell>
                <mxCell id="3" value="&lt;b style=&quot;color: rgb(51, 51, 51); font-size: 25px;&quot;&gt;App&lt;/b&gt;" style="rounded=0;whiteSpace=wrap;html=1;fillColor=#b1ddf0;strokeColor=#10739e;" parent="1" vertex="1">
                    <mxGeometry x="363" y="718" width="264" height="140" as="geometry"/>
                </mxCell>
                <mxCell id="4" value="&lt;b style=&quot;color: rgb(51, 51, 51); font-size: 25px;&quot;&gt;App&lt;/b&gt;" style="rounded=0;whiteSpace=wrap;html=1;fillColor=#b1ddf0;strokeColor=#10739e;" parent="1" vertex="1">
                    <mxGeometry x="363" y="968" width="264" height="140" as="geometry"/>
                </mxCell>
                <mxCell id="5" value="" style="endArrow=none;html=1;strokeWidth=6;strokeColor=#CCCCCC;dashed=1;dashPattern=1 1;rounded=1;targetPerimeterSpacing=0;sourcePerimeterSpacing=0;endSize=6;" parent="1" edge="1">
                    <mxGeometry width="50" height="50" relative="1" as="geometry">
                        <mxPoint x="494.28999999999996" y="960" as="sourcePoint"/>
                        <mxPoint x="494.28999999999996" y="865" as="targetPoint"/>
                    </mxGeometry>
                </mxCell>
                <mxCell id="6" value="&lt;b style=&quot;color: rgb(51, 51, 51); font-size: 25px;&quot;&gt;Load Balancer&lt;/b&gt;" style="rounded=1;whiteSpace=wrap;html=1;fillColor=#d80073;strokeColor=#4D4D4D;fontColor=#ffffff;" parent="1" vertex="1">
                    <mxGeometry x="1312" y="711" width="270" height="168" as="geometry"/>
                </mxCell>
                <mxCell id="7" value="" style="ellipse;whiteSpace=wrap;html=1;aspect=fixed;fontSize=25;fontColor=#333333;fillColor=#333333;" parent="1" vertex="1">
                    <mxGeometry x="1765" y="491" width="100" height="100" as="geometry"/>
                </mxCell>
                <mxCell id="14" value="" style="ellipse;whiteSpace=wrap;html=1;aspect=fixed;fontSize=25;fontColor=#333333;fillColor=#333333;" parent="1" vertex="1">
                    <mxGeometry x="1765" y="641" width="100" height="100" as="geometry"/>
                </mxCell>
                <mxCell id="15" value="" style="ellipse;whiteSpace=wrap;html=1;aspect=fixed;fontSize=25;fontColor=#333333;fillColor=#333333;" parent="1" vertex="1">
                    <mxGeometry x="1765" y="791" width="100" height="100" as="geometry"/>
                </mxCell>
                <mxCell id="16" value="" style="ellipse;whiteSpace=wrap;html=1;aspect=fixed;fontSize=25;fontColor=#333333;fillColor=#333333;" parent="1" vertex="1">
                    <mxGeometry x="1765" y="998" width="100" height="100" as="geometry"/>
                </mxCell>
                <mxCell id="17" value="" style="endArrow=none;html=1;strokeWidth=6;strokeColor=#CCCCCC;dashed=1;dashPattern=1 1;rounded=1;targetPerimeterSpacing=0;sourcePerimeterSpacing=0;endSize=6;" parent="1" edge="1">
                    <mxGeometry width="50" height="50" relative="1" as="geometry">
                        <mxPoint x="1814.8100000000002" y="992" as="sourcePoint"/>
                        <mxPoint x="1814.8100000000002" y="897" as="targetPoint"/>
                    </mxGeometry>
                </mxCell>
                <mxCell id="19" value="Cluster 1" style="text;html=1;strokeColor=none;fillColor=none;align=center;verticalAlign=middle;whiteSpace=wrap;rounded=0;fontSize=25;fontColor=#333333;" parent="1" vertex="1">
                    <mxGeometry x="1893" y="519" width="128" height="40" as="geometry"/>
                </mxCell>
                <mxCell id="20" value="Cluster 2" style="text;html=1;strokeColor=none;fillColor=none;align=center;verticalAlign=middle;whiteSpace=wrap;rounded=0;fontSize=25;fontColor=#333333;" parent="1" vertex="1">
                    <mxGeometry x="1893" y="671" width="128" height="40" as="geometry"/>
                </mxCell>
                <mxCell id="21" value="Cluster 3" style="text;html=1;strokeColor=none;fillColor=none;align=center;verticalAlign=middle;whiteSpace=wrap;rounded=0;fontSize=25;fontColor=#333333;" parent="1" vertex="1">
                    <mxGeometry x="1893" y="821" width="128" height="40" as="geometry"/>
                </mxCell>
                <mxCell id="22" value="Cluster n" style="text;html=1;strokeColor=none;fillColor=none;align=center;verticalAlign=middle;whiteSpace=wrap;rounded=0;fontSize=25;fontColor=#333333;" parent="1" vertex="1">
                    <mxGeometry x="1893" y="1028" width="128" height="40" as="geometry"/>
                </mxCell>
                <mxCell id="23" value="" style="rhombus;whiteSpace=wrap;html=1;fontSize=25;fontColor=#000000;fillColor=#f0a30a;strokeColor=#4D4D4D;" parent="1" vertex="1">
                    <mxGeometry x="981" y="709" width="172" height="172" as="geometry"/>
                </mxCell>
                <mxCell id="25" value="SocketIO Server Module" style="text;html=1;strokeColor=none;fillColor=none;align=center;verticalAlign=middle;whiteSpace=wrap;rounded=0;fontSize=25;fontColor=#333333;" parent="1" vertex="1">
                    <mxGeometry x="917" y="904" width="300" height="40" as="geometry"/>
                </mxCell>
                <mxCell id="26" value="" style="rhombus;whiteSpace=wrap;html=1;fontSize=25;fontColor=#000000;fillColor=#f0a30a;strokeColor=#4D4D4D;" parent="1" vertex="1">
                    <mxGeometry x="1361" y="344" width="172" height="172" as="geometry"/>
                </mxCell>
                <mxCell id="27" value="Server Health Monitoring Module" style="text;html=1;strokeColor=none;fillColor=none;align=center;verticalAlign=middle;whiteSpace=wrap;rounded=0;fontSize=25;fontColor=#333333;" parent="1" vertex="1">
                    <mxGeometry x="1297" y="532" width="300" height="74" as="geometry"/>
                </mxCell>
                <mxCell id="28" value="" style="endArrow=classic;startArrow=classic;html=1;fillColor=#fa6800;strokeColor=#4D4D4D;exitX=0.992;exitY=0.464;exitDx=0;exitDy=0;exitPerimeter=0;entryX=0;entryY=0.5;entryDx=0;entryDy=0;" parent="1" source="2" target="23" edge="1">
                    <mxGeometry width="50" height="50" relative="1" as="geometry">
                        <mxPoint x="789" y="722" as="sourcePoint"/>
                        <mxPoint x="839" y="672" as="targetPoint"/>
                    </mxGeometry>
                </mxCell>
                <mxCell id="29" value="" style="endArrow=classic;startArrow=classic;html=1;fillColor=#fa6800;strokeColor=#4D4D4D;exitX=1;exitY=0.5;exitDx=0;exitDy=0;entryX=0;entryY=0.5;entryDx=0;entryDy=0;" parent="1" source="3" target="23" edge="1">
                    <mxGeometry width="50" height="50" relative="1" as="geometry">
                        <mxPoint x="634.8879999999999" y="606.96" as="sourcePoint"/>
                        <mxPoint x="991" y="807" as="targetPoint"/>
                    </mxGeometry>
                </mxCell>
                <mxCell id="30" value="" style="endArrow=classic;startArrow=classic;html=1;fillColor=#fa6800;strokeColor=#4D4D4D;exitX=1;exitY=0.5;exitDx=0;exitDy=0;entryX=0;entryY=0.5;entryDx=0;entryDy=0;" parent="1" source="4" target="23" edge="1">
                    <mxGeometry width="50" height="50" relative="1" as="geometry">
                        <mxPoint x="637" y="798" as="sourcePoint"/>
                        <mxPoint x="991" y="807.0000000000002" as="targetPoint"/>
                    </mxGeometry>
                </mxCell>
                <mxCell id="31" value="" style="endArrow=classic;startArrow=classic;html=1;fillColor=#fa6800;strokeColor=#4D4D4D;exitX=1;exitY=0.5;exitDx=0;exitDy=0;entryX=0;entryY=0.5;entryDx=0;entryDy=0;" parent="1" source="23" target="6" edge="1">
                    <mxGeometry width="50" height="50" relative="1" as="geometry">
                        <mxPoint x="945.9979999999999" y="526" as="sourcePoint"/>
                        <mxPoint x="1302.1100000000001" y="726.04" as="targetPoint"/>
                    </mxGeometry>
                </mxCell>
                <mxCell id="32" value="" style="endArrow=classic;startArrow=classic;html=1;fillColor=#fa6800;strokeColor=#4D4D4D;entryX=0.5;entryY=0;entryDx=0;entryDy=0;exitX=0.5;exitY=1;exitDx=0;exitDy=0;" parent="1" source="27" target="6" edge="1">
                    <mxGeometry width="50" height="50" relative="1" as="geometry">
                        <mxPoint x="1447" y="629" as="sourcePoint"/>
                        <mxPoint x="1322" y="805.0000000000002" as="targetPoint"/>
                    </mxGeometry>
                </mxCell>
                <mxCell id="33" value="" style="endArrow=classic;startArrow=classic;html=1;fillColor=#fa6800;strokeColor=#4D4D4D;exitX=0.999;exitY=0.463;exitDx=0;exitDy=0;entryX=0;entryY=0.5;entryDx=0;entryDy=0;exitPerimeter=0;" parent="1" source="6" target="16" edge="1">
                    <mxGeometry width="50" height="50" relative="1" as="geometry">
                        <mxPoint x="1573.9999999999995" y="1013.9999999999998" as="sourcePoint"/>
                        <mxPoint x="1732.9999999999995" y="1014" as="targetPoint"/>
                    </mxGeometry>
                </mxCell>
                <mxCell id="34" value="" style="endArrow=classic;startArrow=classic;html=1;fillColor=#fa6800;strokeColor=#4D4D4D;exitX=0.996;exitY=0.475;exitDx=0;exitDy=0;entryX=0;entryY=0.5;entryDx=0;entryDy=0;exitPerimeter=0;" parent="1" source="6" target="15" edge="1">
                    <mxGeometry width="50" height="50" relative="1" as="geometry">
                        <mxPoint x="1591.73" y="798.7840000000001" as="sourcePoint"/>
                        <mxPoint x="1775.000000000001" y="1058" as="targetPoint"/>
                    </mxGeometry>
                </mxCell>
                <mxCell id="35" value="" style="endArrow=classic;startArrow=classic;html=1;fillColor=#fa6800;strokeColor=#4D4D4D;exitX=0.996;exitY=0.47;exitDx=0;exitDy=0;entryX=0;entryY=0.5;entryDx=0;entryDy=0;exitPerimeter=0;" parent="1" source="6" target="14" edge="1">
                    <mxGeometry width="50" height="50" relative="1" as="geometry">
                        <mxPoint x="1590.9199999999996" y="800.8" as="sourcePoint"/>
                        <mxPoint x="1775.000000000001" y="851" as="targetPoint"/>
                    </mxGeometry>
                </mxCell>
                <mxCell id="36" value="" style="endArrow=classic;startArrow=classic;html=1;fillColor=#fa6800;strokeColor=#4D4D4D;exitX=1;exitY=0.5;exitDx=0;exitDy=0;entryX=0;entryY=0.5;entryDx=0;entryDy=0;" parent="1" source="6" target="7" edge="1">
                    <mxGeometry width="50" height="50" relative="1" as="geometry">
                        <mxPoint x="1590.9199999999996" y="799.96" as="sourcePoint"/>
                        <mxPoint x="1775.000000000001" y="701" as="targetPoint"/>
                    </mxGeometry>
                </mxCell>
                <mxCell id="40" value="&lt;font style=&quot;font-size: 38px;&quot;&gt;&lt;b&gt;IPC Communication&lt;/b&gt;&lt;/font&gt;" style="text;html=1;strokeColor=none;fillColor=none;align=center;verticalAlign=middle;whiteSpace=wrap;rounded=0;fontSize=25;fontColor=#333333;" parent="1" vertex="1">
                    <mxGeometry x="1188" y="1218" width="524" height="90" as="geometry"/>
                </mxCell>
                <mxCell id="41" value="&lt;font style=&quot;font-size: 38px;&quot;&gt;&lt;b&gt;Socket Communication&lt;/b&gt;&lt;/font&gt;" style="text;html=1;strokeColor=none;fillColor=none;align=center;verticalAlign=middle;whiteSpace=wrap;rounded=0;fontSize=25;fontColor=#333333;" parent="1" vertex="1">
                    <mxGeometry x="338" y="1218" width="524" height="90" as="geometry"/>
                </mxCell>
                <mxCell id="42" value="" style="endArrow=none;dashed=1;html=1;dashPattern=1 3;strokeWidth=5;strokeColor=#4D4D4D;fontSize=38;" parent="1" edge="1">
                    <mxGeometry width="50" height="50" relative="1" as="geometry">
                        <mxPoint x="905" y="1319" as="sourcePoint"/>
                        <mxPoint x="905" y="272" as="targetPoint"/>
                    </mxGeometry>
                </mxCell>
            </root>
        </mxGraphModel>
    </diagram>
</mxfile>